<svg xmlns="http://www.w3.org/2000/svg">
    <symbol width="70" height="40" viewBox="0 0 70 40" fill="none" xmlns="http://www.w3.org/2000/svg">
        <path d="M36.6935 11.0646L37.4561 10.3196L22.9987 14.9989L21.8781 18.3346L36.6935 11.0646Z" fill="#F6F3E3"/>
        <path d="M17.7222 16.2498L8.50383 16.5904C8.41869 16.4764 8.32728 16.3662 8.22836 16.2635C6.94115 14.925 4.68727 14.7434 2.8704 15.8291C1.86117 16.4313 1.11238 17.3391 0.759271 18.3847C0.394895 19.4628 0.495067 20.5584 1.03975 21.4675C1.17373 21.6941 1.33401 21.9032 1.51557 22.0911C2.50101 23.1141 4.05118 23.4609 5.53874 23.079C5.58131 23.1604 5.63265 23.2405 5.70026 23.3107C6.08092 23.7051 6.7095 23.7176 7.10518 23.3382C7.41446 23.0402 7.48583 22.5907 7.3218 22.22C8.1044 21.6328 8.68665 20.8502 8.98466 19.9674C9.18876 19.3664 9.24135 18.7603 9.15871 18.1831L16.599 18.4198L17.7222 16.2498ZM7.85522 19.5905C7.59352 20.3681 7.02754 21.048 6.26123 21.5051C4.91516 22.3102 3.27985 22.2088 2.37204 21.2684C2.25309 21.1432 2.14791 21.0067 2.06026 20.8615C1.69713 20.2554 1.63578 19.5116 1.88621 18.7691C2.14791 17.9915 2.71388 17.3116 3.47895 16.8533C4.82501 16.0482 6.46157 16.1484 7.36813 17.0912C7.48709 17.2152 7.59227 17.3529 7.67992 17.4994C8.04554 18.1042 8.10565 18.848 7.85522 19.5905Z" fill="#F6F3E3"/>
        <path d="M19.5741 39.8504C19.6367 39.5937 18.5812 36.7237 19.6029 35.6206C20.0362 35.2825 20.4193 34.8668 20.7298 34.3897C21.8843 32.6142 21.7892 30.3553 20.502 29.018C20.4669 28.9817 20.4268 28.9504 20.3905 28.9141L21.0191 18.4636L27.216 0.000610352L26.2644 1.22396L17.4993 18.1856L18.9618 19.7746L18.4059 27.9799C17.8962 27.9198 17.3628 27.9649 16.8281 28.1214C15.7701 28.4345 14.8347 29.147 14.1936 30.1324C13.0391 31.9079 13.1343 34.1668 14.4215 35.5054C14.6031 35.6907 14.8072 35.8597 15.0263 36.0012C15.5209 36.3243 16.0781 36.5046 16.6629 36.5509C18.1016 37.1945 18.1942 39.188 18.367 39.5987C18.5423 40.0144 19.5065 40.1208 19.5741 39.8504ZM19.0582 18.2094C18.8203 17.9602 18.8278 17.5658 19.0758 17.3266C19.3237 17.09 19.7181 17.0962 19.9573 17.3454C20.1952 17.5921 20.1877 17.9878 19.9397 18.2257C19.6906 18.4648 19.2961 18.4573 19.0582 18.2094ZM17.7597 35.2575C17.0072 35.4803 16.2672 35.3877 15.6749 35.0045C15.5309 34.9106 15.3982 34.8017 15.2792 34.6765C14.3714 33.7348 14.3351 32.0945 15.1903 30.7823C15.6762 30.0322 16.3774 29.4951 17.165 29.2622C17.9175 29.0393 18.6563 29.1307 19.2485 29.5138C19.3925 29.609 19.5253 29.7192 19.6442 29.8444C20.552 30.786 20.5871 32.4251 19.7331 33.7398C19.246 34.4861 18.5448 35.0271 17.7597 35.2575Z" fill="#F6F3E3"/>
        <path d="M37.78 6.8C35.9667 6.8 35.06 8.30667 35.06 11.32C35.06 14.3333 35.98 15.84 37.82 15.84C38.5133 15.84 39.08 15.5867 39.52 15.08C39.9733 14.5733 40.2867 13.92 40.46 13.12L40.82 13.16C40.62 14.1333 40.22 14.92 39.62 15.52C39.02 16.1067 38.26 16.4 37.34 16.4C35.9667 16.4 34.92 15.94 34.2 15.02C33.48 14.0867 33.12 12.8667 33.12 11.36C33.12 9.85334 33.48 8.65334 34.2 7.76C34.9333 6.85334 36.02 6.4 37.46 6.4C38.38 6.4 39.1267 6.6 39.7 7C40.2733 7.4 40.56 8.00667 40.56 8.82C40.56 9.22 40.4267 9.56 40.16 9.84C39.9067 10.1067 39.6 10.24 39.24 10.24C38.8933 10.24 38.6067 10.14 38.38 9.94C38.1667 9.72667 38.06 9.47334 38.06 9.18C38.06 8.87334 38.1467 8.62 38.32 8.42C38.4933 8.20667 38.7267 8.1 39.02 8.1C39.4733 8.1 39.74 8.27334 39.82 8.62C39.8333 8.74 39.8933 8.8 40 8.8C40.12 8.8 40.18 8.74 40.18 8.62C40.18 8.16667 39.9733 7.75334 39.56 7.38C39.16 6.99334 38.5667 6.8 37.78 6.8Z" fill="#F6F3E3"/>
        <path d="M46.3997 15.7V16H41.9797V15.7H43.2997V2.5H41.8797V2.2H42.2997C43.353 2.2 44.293 2.11334 45.1197 1.94V8.54H45.2397C45.4664 7.9 45.8464 7.38667 46.3797 7C46.9264 6.6 47.533 6.4 48.1997 6.4C49.3597 6.4 50.153 6.74667 50.5797 7.44C51.0064 8.12 51.2197 9.14 51.2197 10.5V15.7H52.5397V16H48.1197V15.7H49.4397V10.78C49.4397 9.27334 49.3264 8.28 49.0997 7.8C48.993 7.58667 48.8264 7.39334 48.5997 7.22C48.3864 7.04667 48.0664 6.96 47.6397 6.96C47.213 6.96 46.8064 7.11334 46.4197 7.42C46.0464 7.72667 45.7664 8.14667 45.5797 8.68C45.2464 9.62667 45.0797 10.76 45.0797 12.08V15.7H46.3997Z" fill="#F6F3E3"/>
        <path d="M56.8775 15.7H58.1975V16H53.7775V15.7H55.0975V7.1H53.6775V6.8H54.0975C55.1375 6.8 56.0642 6.71334 56.8775 6.54V15.7ZM55.0775 4.62C54.8642 4.39334 54.7575 4.11334 54.7575 3.78C54.7575 3.44667 54.8642 3.16667 55.0775 2.94C55.3042 2.71334 55.5842 2.6 55.9175 2.6C56.2508 2.6 56.5308 2.71334 56.7575 2.94C56.9842 3.16667 57.0975 3.44667 57.0975 3.78C57.0975 4.11334 56.9842 4.39334 56.7575 4.62C56.5308 4.83334 56.2508 4.94 55.9175 4.94C55.5842 4.94 55.3042 4.83334 55.0775 4.62Z" fill="#F6F3E3"/>
        <path d="M63.9955 10.76L62.7155 10.98V15.7H64.0355V16H59.6155V15.7H60.9355V2.5H59.5155V2.2H59.9355C60.9755 2.2 61.9021 2.11334 62.7155 1.94V10.64C65.3555 10.2933 66.6755 9.44 66.6755 8.08C66.6755 7.68 66.5688 7.36 66.3555 7.12C66.1555 6.88 65.9021 6.76 65.5955 6.76C65.4621 6.76 65.3955 6.81334 65.3955 6.92C65.3955 7.02667 65.4555 7.09334 65.5755 7.12C65.9221 7.2 66.0955 7.46 66.0955 7.9C66.0955 8.18 65.9888 8.41334 65.7755 8.6C65.5755 8.77334 65.3221 8.86 65.0155 8.86C64.7221 8.86 64.4688 8.75333 64.2555 8.54C64.0555 8.31334 63.9555 8.02667 63.9555 7.68C63.9555 7.33334 64.0888 7.03334 64.3555 6.78C64.6355 6.52667 65.0021 6.4 65.4555 6.4C65.9088 6.4 66.2821 6.55334 66.5755 6.86C66.8688 7.15334 67.0155 7.56 67.0155 8.08C67.0155 9.18667 66.3221 9.98667 64.9355 10.48V10.52C65.9755 10.5733 66.6555 10.8467 66.9755 11.34C67.2955 11.8333 67.4555 12.64 67.4555 13.76V14.52C67.4555 15.0267 67.4955 15.3933 67.5755 15.62C67.6688 15.8333 67.8355 15.94 68.0755 15.94C68.1688 15.94 68.2888 15.92 68.4355 15.88L68.4755 16.12C68.1288 16.2133 67.7688 16.26 67.3955 16.26C66.2488 16.26 65.6755 15.6 65.6755 14.28V13.2C65.6755 11.5733 65.1555 10.76 64.1155 10.76H63.9955Z" fill="#F6F3E3"/>
        <path d="M37.78 26.8C35.9667 26.8 35.06 28.3067 35.06 31.32C35.06 34.3333 35.98 35.84 37.82 35.84C38.5133 35.84 39.08 35.5867 39.52 35.08C39.9733 34.5733 40.2867 33.92 40.46 33.12L40.82 33.16C40.62 34.1333 40.22 34.92 39.62 35.52C39.02 36.1067 38.26 36.4 37.34 36.4C35.9667 36.4 34.92 35.94 34.2 35.02C33.48 34.0867 33.12 32.8667 33.12 31.36C33.12 29.8533 33.48 28.6533 34.2 27.76C34.9333 26.8533 36.02 26.4 37.46 26.4C38.38 26.4 39.1267 26.6 39.7 27C40.2733 27.4 40.56 28.0067 40.56 28.82C40.56 29.22 40.4267 29.56 40.16 29.84C39.9067 30.1067 39.6 30.24 39.24 30.24C38.8933 30.24 38.6067 30.14 38.38 29.94C38.1667 29.7267 38.06 29.4733 38.06 29.18C38.06 28.8733 38.1467 28.62 38.32 28.42C38.4933 28.2067 38.7267 28.1 39.02 28.1C39.4733 28.1 39.74 28.2733 39.82 28.62C39.8333 28.74 39.8933 28.8 40 28.8C40.12 28.8 40.18 28.74 40.18 28.62C40.18 28.1667 39.9733 27.7533 39.56 27.38C39.16 26.9933 38.5667 26.8 37.78 26.8Z" fill="#F6F3E3"/>
        <path d="M46.3997 35.7V36H41.9797V35.7H43.2997V22.5H41.8797V22.2H42.2997C43.353 22.2 44.293 22.1133 45.1197 21.94V28.54H45.2397C45.4664 27.9 45.8464 27.3867 46.3797 27C46.9264 26.6 47.533 26.4 48.1997 26.4C49.3597 26.4 50.153 26.7467 50.5797 27.44C51.0064 28.12 51.2197 29.14 51.2197 30.5V35.7H52.5397V36H48.1197V35.7H49.4397V30.78C49.4397 29.2733 49.3264 28.28 49.0997 27.8C48.993 27.5867 48.8264 27.3933 48.5997 27.22C48.3864 27.0467 48.0664 26.96 47.6397 26.96C47.213 26.96 46.8064 27.1133 46.4197 27.42C46.0464 27.7267 45.7664 28.1467 45.5797 28.68C45.2464 29.6267 45.0797 30.76 45.0797 32.08V35.7H46.3997Z" fill="#F6F3E3"/>
        <path d="M56.8775 35.7H58.1975V36H53.7775V35.7H55.0975V27.1H53.6775V26.8H54.0975C55.1375 26.8 56.0642 26.7133 56.8775 26.54V35.7ZM55.0775 24.62C54.8642 24.3933 54.7575 24.1133 54.7575 23.78C54.7575 23.4467 54.8642 23.1667 55.0775 22.94C55.3042 22.7133 55.5842 22.6 55.9175 22.6C56.2508 22.6 56.5308 22.7133 56.7575 22.94C56.9842 23.1667 57.0975 23.4467 57.0975 23.78C57.0975 24.1133 56.9842 24.3933 56.7575 24.62C56.5308 24.8333 56.2508 24.94 55.9175 24.94C55.5842 24.94 55.3042 24.8333 55.0775 24.62Z" fill="#F6F3E3"/>
        <path d="M63.9955 30.76L62.7155 30.98V35.7H64.0355V36H59.6155V35.7H60.9355V22.5H59.5155V22.2H59.9355C60.9755 22.2 61.9021 22.1133 62.7155 21.94V30.64C65.3555 30.2933 66.6755 29.44 66.6755 28.08C66.6755 27.68 66.5688 27.36 66.3555 27.12C66.1555 26.88 65.9021 26.76 65.5955 26.76C65.4621 26.76 65.3955 26.8133 65.3955 26.92C65.3955 27.0267 65.4555 27.0933 65.5755 27.12C65.9221 27.2 66.0955 27.46 66.0955 27.9C66.0955 28.18 65.9888 28.4133 65.7755 28.6C65.5755 28.7733 65.3221 28.86 65.0155 28.86C64.7221 28.86 64.4688 28.7533 64.2555 28.54C64.0555 28.3133 63.9555 28.0267 63.9555 27.68C63.9555 27.3333 64.0888 27.0333 64.3555 26.78C64.6355 26.5267 65.0021 26.4 65.4555 26.4C65.9088 26.4 66.2821 26.5533 66.5755 26.86C66.8688 27.1533 67.0155 27.56 67.0155 28.08C67.0155 29.1867 66.3221 29.9867 64.9355 30.48V30.52C65.9755 30.5733 66.6555 30.8467 66.9755 31.34C67.2955 31.8333 67.4555 32.64 67.4555 33.76V34.52C67.4555 35.0267 67.4955 35.3933 67.5755 35.62C67.6688 35.8333 67.8355 35.94 68.0755 35.94C68.1688 35.94 68.2888 35.92 68.4355 35.88L68.4755 36.12C68.1288 36.2133 67.7688 36.26 67.3955 36.26C66.2488 36.26 65.6755 35.6 65.6755 34.28V33.2C65.6755 31.5733 65.1555 30.76 64.1155 30.76H63.9955Z" fill="#F6F3E3"/>
    </symbol>

    <symbol id="top" width="80" height="80" viewBox="0 0 80 80" fill="none" xmlns="http://www.w3.org/2000/svg">
        <g clip-path="url(#clip0_16_75)">
            <path d="M49.5968 18.7992L48.7127 19.5806C48.7127 19.5806 44.1973 28.2733 40.884 34.7446C41.6128 36.2072 42.269 37.5295 42.7799 38.5763L49.5968 18.7992Z" fill="#F6F3E3"/>
            <path d="M37.4405 41.594C34.6531 46.9985 28.7779 49.2625 28.3521 49.4227C26.3812 49.876 24.6782 51.4863 24.012 53.6702C23.5462 55.1828 23.6339 56.7656 24.2449 58.1305C24.8785 59.5404 25.9905 60.5547 27.3804 60.978C27.8287 61.1182 28.2945 61.1858 28.7653 61.1908C31.2096 61.2109 33.4711 59.4027 34.2675 56.8082C34.2675 56.7981 34.2675 56.7856 34.2725 56.7756C34.2825 56.8006 34.285 56.8157 34.285 56.8157L39.6845 41.1032L39.692 41.0982L38.0741 40.2817C37.7135 41.0055 37.4831 41.4788 37.4405 41.594ZM32.6071 56.3023C32.0336 58.1705 30.4608 59.4678 28.7829 59.4553C28.4798 59.4553 28.1793 59.4027 27.8938 59.3176C26.9897 59.0421 26.261 58.3684 25.8352 57.4242C25.3944 56.4375 25.3393 55.2855 25.6774 54.1761C26.2509 52.3028 27.8237 51.008 29.5016 51.018C29.8047 51.023 30.1002 51.0706 30.3907 51.1583C31.2898 51.4338 32.0235 52.1074 32.4493 53.0516C32.8876 54.0358 32.9427 55.1878 32.6071 56.3023Z" fill="#F6F3E3"/>
            <path d="M52.1938 49.6532C51.5627 49.3927 46.0406 46.971 43.4636 41.6141C43.1705 40.705 32.4017 19.3877 32.4017 19.3877L31.5452 18.6589L38.4323 39.6381L41.2372 41.0556L46.1432 56.5978C46.1683 56.7005 46.1908 56.8032 46.2159 56.9084C46.9447 59.5605 49.1861 61.4263 51.6529 61.4463C52.1012 61.4488 52.547 61.3937 52.9802 61.271C54.3802 60.8878 55.5247 59.9086 56.1908 58.5162C56.842 57.1663 56.9722 55.5835 56.5515 54.0584C55.9304 51.8019 54.2149 50.1215 52.1938 49.6532ZM40.0376 39.3677C39.5317 39.3652 39.1285 38.9519 39.1285 38.4461C39.1335 37.9377 39.5442 37.5345 40.0526 37.5395C40.5585 37.542 40.9667 37.9552 40.9617 38.4611C40.9567 38.9695 40.5435 39.3752 40.0376 39.3677ZM54.6306 57.7599C54.1798 58.6915 53.431 59.3426 52.5219 59.5931C52.2414 59.6657 51.9534 59.7033 51.6654 59.7008C49.9649 59.6882 48.4122 58.3509 47.8888 56.4426C47.5808 55.3231 47.6659 54.1711 48.1392 53.1994C48.59 52.2678 49.3388 51.6166 50.2529 51.3662C50.5259 51.291 50.8189 51.251 51.1019 51.2535C52.8049 51.271 54.3551 52.6083 54.8835 54.5167C55.1891 55.6386 55.0989 56.7882 54.6306 57.7599Z" fill="#F6F3E3"/>
            <path d="M77.4956 41.6166C77.5232 41.0957 77.5783 40.5823 77.5783 40.0514C77.5783 39.5806 77.5257 39.1248 77.5056 38.6565C77.691 37.7524 78.1493 36.8283 78.585 35.9718C79.0158 35.0176 79.4666 34.1611 79.5642 33.6777C79.9574 32.0749 79.0258 31.1108 77.999 30.4872C77.2677 30.0339 76.4964 29.7383 76.018 29.4053C75.7476 28.4862 75.417 27.5871 75.0764 26.7005C74.9787 25.7414 75.0714 24.692 75.1515 23.7328C75.2792 22.676 75.442 21.7093 75.3919 21.2134C74.9311 18.401 71.966 18.689 70.5735 18.3409C70.0175 17.5645 69.4516 16.7982 68.8405 16.0669C67.9264 14.3389 67.8462 11.6367 67.3454 10.8328C66.0882 8.23572 63.3008 9.56554 61.8908 9.6557C61.1094 9.09722 60.308 8.57631 59.4891 8.08295C58.1192 6.64042 57.0724 4.2813 56.3937 3.57506C55.2642 2.38047 53.9194 2.68851 52.86 3.14932C52.0837 3.4849 51.4175 3.97827 50.8665 4.2262C49.9023 3.9382 48.9256 3.68275 47.9314 3.47238C46.2059 2.59585 44.5254 0.659959 43.6689 0.291814C42.2064 -0.376856 41.0443 0.219187 40.1928 1.00556C39.5718 1.62665 39.0984 2.32036 38.6627 2.72858C37.6734 2.76865 36.6867 2.82625 35.7175 2.94145C33.7766 2.72107 31.5101 1.34866 30.5735 1.32362C28.9582 1.12076 28.0416 2.02485 27.5182 3.1418C27.13 3.91816 26.9021 4.72207 26.6116 5.23547C25.71 5.59109 24.831 5.98177 23.9619 6.4C22.011 6.76064 19.4691 6.34741 18.5099 6.53274C16.8871 6.82825 16.4112 8.12051 16.2259 9.25751C16.0781 10.0965 16.1307 10.9404 16.0306 11.534C15.2717 12.1751 14.5329 12.8363 13.8292 13.535C12.1663 14.5317 9.55172 14.8348 8.80541 15.3882C6.34611 16.8834 7.87128 19.5255 8.08916 20.9329C7.59329 21.7594 7.13248 22.6034 6.69923 23.4724C6.10569 24.1961 5.22915 24.7947 4.46031 25.3607C3.61883 25.9943 2.81743 26.5327 2.49687 26.9109C1.3699 28.128 1.79064 29.4428 2.36163 30.4646C2.79489 31.2109 3.30579 31.832 3.58127 32.3529C3.38092 33.3096 3.24318 34.2863 3.11545 35.268C2.32657 37.0837 0.668672 38.9645 0.247935 39.8561C-0.666164 42.5307 2.02104 43.6978 3.09041 44.667C3.21563 45.6737 3.35337 46.6855 3.55873 47.6672C3.46607 49.5931 2.30153 51.9071 2.36163 52.8263C2.27148 55.7013 5.30929 55.8766 6.61408 56.4526C7.03732 57.3266 7.49562 58.1731 7.98397 59.0021C8.26697 59.8936 8.29702 60.9555 8.34461 61.9172C8.41473 62.9665 8.42975 63.9332 8.57 64.404C8.97571 66.0143 10.3005 66.375 11.4701 66.4601C12.3366 66.5127 13.1355 66.4175 13.7265 66.4726C14.4127 67.1588 15.1465 67.805 15.8853 68.4361C17.0048 70.0564 17.6083 72.5783 18.1693 73.3647C19.1435 74.6545 20.4458 74.6795 21.5728 74.389C22.4192 74.136 23.1731 73.7479 23.7491 73.6076C24.6231 74.0359 25.5096 74.4391 26.4187 74.8047C27.1826 75.3281 27.8663 76.1095 28.4773 76.8658C29.166 77.6772 29.7821 78.391 30.1878 78.684C30.8465 79.1573 31.4926 79.3076 32.0887 79.2575C32.6922 79.1623 33.2457 78.8718 33.739 78.5287C34.4478 78.0404 35.0288 77.4443 35.5222 77.1313C36.4864 77.254 37.4581 77.3166 38.4473 77.3692C40.3256 77.9953 42.3441 79.5455 43.2682 79.8335C44.8335 80.387 45.8653 79.4353 46.574 78.5287C47.0874 77.85 47.4505 77.1238 47.8137 76.6605C48.7954 76.4551 49.7496 76.1921 50.7012 75.9142C52.6597 75.8741 55.0689 76.7281 56.0281 76.6955C57.6359 76.5828 58.3722 75.5009 58.7428 74.4015C58.9983 73.555 59.0809 72.7085 59.2762 72.1451C60.0802 71.6617 60.8841 71.1583 61.6529 70.6199C62.5294 70.2342 63.5813 70.0664 64.583 69.9713C65.6399 69.8285 66.579 69.7108 67.0373 69.533C68.585 68.9745 68.9031 67.6898 68.8555 66.4751C68.8305 65.6086 68.6552 64.7922 68.6727 64.2087C69.2838 63.4924 69.8497 62.7361 70.4007 61.9723C70.7413 61.6868 71.1044 61.4188 71.5202 61.1909C71.9785 60.8979 72.4693 60.6374 72.9477 60.4045C73.9018 59.9337 74.8009 59.543 75.1891 59.23C77.2928 57.3066 75.4495 54.9875 74.9737 53.6302C75.3318 52.7236 75.6699 51.8095 75.9579 50.8728C76.9121 49.1774 79.1059 47.6572 79.4891 46.8057C80.9642 44.3439 78.3772 42.7461 77.4956 41.6166ZM40.1753 73.3271C21.8282 73.3271 6.89958 58.401 6.89958 40.0514C6.89958 21.7043 21.8257 6.77566 40.1753 6.77566C58.5249 6.77566 73.4536 21.7068 73.4536 40.0539C73.4536 58.401 58.5274 73.3271 40.1753 73.3271Z" fill="#F6F3E3"/>
            <path d="M40.4007 8.57629C23.0704 8.57629 8.97571 22.6735 8.97571 40.0038C8.97571 57.3291 23.0704 71.4288 40.4007 71.4288C57.731 71.4288 71.8282 57.3291 71.8282 40.0038C71.8282 22.6735 57.731 8.57629 40.4007 8.57629ZM40.4007 69.4153C24.1823 69.4153 10.9867 56.2197 10.9867 40.0063C10.9867 23.7854 24.1848 10.5898 40.4007 10.5898C56.6216 10.5898 69.8147 23.7879 69.8147 40.0063C69.8147 56.2197 56.6191 69.4153 40.4007 69.4153Z" fill="#F6F3E3"/>
        </g>
        <defs>
            <clipPath id="clip0_16_75">
                <rect width="80" height="80" fill="white"/>
            </clipPath>
        </defs>
    </symbol>
    <symbol id="beard" width="80" height="80" viewBox="0 0 80 80" fill="none" xmlns="http://www.w3.org/2000/svg">
        <g clip-path="url(#clip0_16_67)">
            <path d="M77.4958 41.6206C77.5175 41.0989 77.5761 40.5845 77.5761 40.0555C77.5761 39.5837 77.5225 39.129 77.5031 38.66C77.6905 37.7567 78.1439 36.8281 78.5779 35.9747C79.0092 35.0205 79.4581 34.1648 79.5555 33.6809C79.9505 32.0781 79.0167 31.1115 77.993 30.4898C77.2617 30.0339 76.4889 29.7392 76.0088 29.4064C75.7355 28.4887 75.409 27.5892 75.0677 26.7007C74.9727 25.7427 75.0629 24.6945 75.1458 23.7353C75.2702 22.6773 75.4359 21.7108 75.3823 21.2148C74.9241 18.4016 71.9572 18.688 70.5654 18.3383C70.0097 17.5632 69.4415 16.7964 68.8321 16.0652C67.9155 14.3381 67.8353 11.6372 67.3355 10.8302C66.0801 8.23407 63.2913 9.5626 61.8824 9.65529C61.1023 9.09582 60.3002 8.57664 59.4813 8.07938C58.1089 6.6375 57.0656 4.28251 56.3829 3.57441C55.2519 2.37865 53.9085 2.68594 52.8508 3.14416C52.0754 3.48172 51.4076 3.97543 50.8567 4.22281C49.8937 3.93639 48.9188 3.67691 47.9216 3.46711C46.1933 2.59075 44.5163 0.655153 43.6594 0.28962C42.1941 -0.379655 41.0339 0.216555 40.1832 1.00273C39.564 1.62441 39.0922 2.3154 38.6524 2.72498C37.6639 2.76506 36.6779 2.82247 35.7101 2.93937C33.7698 2.71767 31.5039 1.34509 30.5653 1.32192C28.9552 1.12569 28.0362 2.03128 27.5169 3.14416C27.1244 3.92053 26.8977 4.72508 26.6088 5.23945C25.7044 5.59413 24.8281 5.98305 23.9601 6.40473C22.0051 6.76442 19.4664 6.34983 18.5059 6.5375C16.8836 6.82642 16.4083 8.12197 16.2194 9.26032C16.0743 10.0964 16.1267 10.9398 16.0292 11.5347C15.271 12.1783 14.5311 12.8376 13.8255 13.5386C12.1632 14.5318 9.54624 14.8366 8.80265 15.3888C6.34433 16.8843 7.86408 19.5268 8.08598 20.9344C7.59227 21.7632 7.1305 22.6078 6.6988 23.4733C6.10175 24.195 5.22518 24.797 4.45737 25.3613C3.61754 25.9951 2.81425 26.5339 2.49255 26.9141C1.36631 28.1317 1.7855 29.4444 2.35728 30.4656C2.79233 31.214 3.30086 31.8332 3.57621 32.3549C3.37622 33.3129 3.23615 34.2892 3.10943 35.2704C2.3197 37.0853 0.665723 38.9647 0.243826 39.8605C-0.67032 42.5347 2.01596 43.7023 3.08375 44.6701C3.20922 45.6792 3.34825 46.6885 3.55304 47.671C3.46056 49.5967 2.29528 51.915 2.35728 52.8291C2.2648 55.7031 5.30576 55.8784 6.61112 56.4588C7.0351 57.3264 7.49228 58.175 7.98098 59.0037C8.26364 59.8983 8.29286 60.961 8.34046 61.919C8.41352 62.9672 8.42584 63.9327 8.56842 64.408C8.97195 66.0167 10.3003 66.3799 11.4681 66.4653C12.3346 66.514 13.1354 66.419 13.7276 66.4774C14.4163 67.1649 15.1476 67.8112 15.8862 68.4398C17.0076 70.0584 17.612 72.584 18.1727 73.3687C19.1465 74.6584 20.4496 74.6851 21.5781 74.395C22.4215 74.1413 23.1785 73.7516 23.7551 73.6077C24.6277 74.039 25.5174 74.4415 26.4255 74.8045C27.1897 75.3287 27.8759 76.1038 28.4853 76.8669C29.1765 77.6785 29.7906 78.3929 30.1977 78.6828C30.8536 79.1582 31.5006 79.3068 32.0968 79.2582C32.7013 79.163 33.2547 78.873 33.7495 78.5294C34.4576 78.0417 35.0377 77.4468 35.5315 77.1349C36.4955 77.2568 37.4706 77.3203 38.4543 77.3689C40.3337 77.9954 42.3509 79.5458 43.2795 79.8358C44.8445 80.389 45.8758 79.4385 46.5874 78.5342C47.1018 77.8541 47.46 77.1299 47.8258 76.6644C48.8057 76.4598 49.7637 76.1988 50.7143 75.921C52.6744 75.8817 55.0828 76.7349 56.0383 76.7009C57.6471 76.5863 58.3809 75.5062 58.7565 74.4071C59.0074 73.561 59.0905 72.7153 59.2878 72.1475C60.0946 71.6648 60.8942 71.1624 61.6647 70.6213C62.5396 70.2361 63.5928 70.0681 64.5971 69.9754C65.6528 69.8338 66.5911 69.7144 67.0519 69.5341C68.6023 68.9783 68.9169 67.6914 68.868 66.4795C68.8484 65.6119 68.668 64.7976 68.6852 64.2101C69.2945 63.4912 69.86 62.7403 70.4185 61.975C70.7548 61.6921 71.118 61.4216 71.5397 61.1948C71.9956 60.9024 72.4854 60.6437 72.9632 60.4076C73.9187 59.9346 74.8205 59.5446 75.2084 59.2327C77.3095 57.3143 75.4618 54.9912 74.994 53.631C75.3472 52.7264 75.6885 51.8123 75.9737 50.8764C76.9269 49.1821 79.1182 47.6611 79.5084 46.8102C80.9594 44.3459 78.3755 42.7491 77.4958 41.6206ZM40.1748 73.3297C21.8264 73.3297 6.89941 58.404 6.89941 40.0555C6.89941 21.706 21.8264 6.77883 40.1748 6.77883C58.5233 6.77883 73.449 21.706 73.449 40.0555C73.449 58.404 58.5208 73.3297 40.1748 73.3297Z" fill="#F6F3E3"/>
            <path d="M50.5859 28.1938C49.6816 23.611 41.8225 20.8955 39.998 24.3325C38.1758 20.8953 30.3154 23.6108 29.4111 28.1938C28.2312 32.9863 21.9775 34.305 18.5086 31.8039C18.5086 37.2205 24.3419 37.2875 27.9509 37.6372C36.5011 37.2618 39.2043 33.3213 39.9978 31.521C40.7961 33.3213 43.497 37.2618 52.046 37.6372C55.6562 37.2875 61.4895 37.2203 61.4895 31.8039C58.0135 34.305 51.766 32.9863 50.5859 28.1938Z" fill="#F6F3E3"/>
            <path d="M39.8786 33.469C35.1459 39.9361 25.6401 38.471 25.6401 38.471C25.6401 38.471 25.1905 47.3296 27.9816 49.6428C27.8097 59.9542 38.967 62.2188 41.7631 62.3943C44.5614 62.5674 49.9012 59.2133 48.775 57.1583C51.0615 54.9181 51.8099 52.1586 51.5734 49.4673C54.0158 49.1162 52.6508 38.7025 52.6508 38.7025C52.6508 38.7025 42.9233 39.0597 39.8786 33.469Z" fill="#F6F3E3"/>
            <path d="M40.2698 10.6328C23.8753 10.6328 10.5349 23.973 10.5349 40.3677C10.5349 56.7658 23.8751 70.1049 40.2698 70.1049C56.6681 70.1049 70.007 56.766 70.007 40.3677C70.0047 23.9728 56.6681 10.6328 40.2698 10.6328ZM40.2698 68.9664C24.5018 68.9664 11.6735 56.1345 11.6735 40.3675C11.6735 24.6018 24.5018 11.7712 40.2698 11.7712C56.0366 11.7712 68.8687 24.6018 68.8687 40.3675C68.8664 56.1345 56.0368 68.9664 40.2698 68.9664Z" fill="#F6F3E3"/>
        </g>
        <defs>
            <clipPath id="clip0_16_67">
                <rect width="80" height="80" fill="white"/>
            </clipPath>
        </defs>
    </symbol>
    <symbol id="guarantee" width="80" height="80" viewBox="0 0 80 80" fill="none" xmlns="http://www.w3.org/2000/svg">
        <g clip-path="url(#clip0_14_55)">
            <path d="M77.4949 41.6145C77.5169 41.0946 77.5756 40.582 77.5756 40.0497C77.5756 39.5797 77.5219 39.1219 77.5047 38.6547C77.6927 37.7501 78.1445 36.8275 78.5814 35.9706C79.0133 35.015 79.46 34.1606 79.5577 33.6747C79.9534 32.0734 79.0208 31.1103 77.9954 30.4854C77.2629 30.0338 76.494 29.7384 76.0131 29.4027C75.7397 28.486 75.4127 27.5864 75.0734 26.699C74.9756 25.7409 75.0686 24.6912 75.1514 23.7318C75.276 22.6736 75.4395 21.7094 75.3883 21.2113C74.9317 18.399 71.9633 18.6871 70.5718 18.3367C70.0128 17.5616 69.4465 16.7939 68.8363 16.0616C67.9183 14.3344 67.8378 11.6346 67.3423 10.8302C66.0876 8.23287 63.2971 9.56309 61.8862 9.65236C61.11 9.09209 60.3068 8.57217 59.4864 8.08026C58.1169 6.63757 57.072 4.27816 56.3909 3.57009C55.2608 2.37889 53.9155 2.68641 52.8587 3.14529C52.0848 3.48103 51.416 3.97524 50.8669 4.22318C49.9 3.93636 48.9262 3.67755 47.9325 3.46515C46.2041 2.59129 44.527 0.652928 43.6678 0.289171C42.2032 -0.378553 41.0435 0.216001 40.1916 1.00331C39.5741 1.62336 39.0991 2.31534 38.6611 2.72551C37.6713 2.76585 36.6862 2.82314 35.7195 2.93791C33.7788 2.71819 31.5123 1.34616 30.5749 1.32295C28.9599 1.12163 28.0421 2.02371 27.5222 3.14027C27.1302 3.91775 26.9022 4.72094 26.6128 5.2348C25.7047 5.58999 24.8283 5.98301 23.9605 6.4028C22.005 6.76049 19.4688 6.34782 18.5056 6.53471C16.8859 6.8253 16.4111 8.12019 16.2207 9.26038C16.0754 10.0951 16.1278 10.9399 16.0338 11.5343C15.2757 12.1775 14.5336 12.8367 13.8305 13.5372C12.1633 14.5296 9.55116 14.8372 8.8065 15.3866C6.34696 16.8817 7.8668 19.5267 8.08882 20.9341C7.5944 21.7615 7.13176 22.6038 6.69859 23.4741C6.10425 24.193 5.22663 24.7959 4.45877 25.361C3.61899 25.9957 2.81706 26.5328 2.49741 26.9137C1.36955 28.1281 1.78955 29.4428 2.36194 30.4655C2.79406 31.2125 3.30416 31.8326 3.58011 32.3525C3.37983 33.3106 3.24186 34.2871 3.11496 35.2696C2.3264 37.0847 0.670052 38.9643 0.250268 39.8565C-0.665187 42.532 2.02264 43.6988 3.08925 44.673C3.2151 45.6762 3.35182 46.687 3.5592 47.6708C3.46408 49.5969 2.30194 51.9109 2.36173 52.8289C2.26891 55.7071 5.30942 55.8781 6.61434 56.4568C7.03894 57.3282 7.49426 58.1729 7.98136 59.0029C8.26338 59.8964 8.29369 60.9582 8.34386 61.9176C8.41348 62.9672 8.42937 63.9362 8.56839 64.4074C8.97354 66.0161 10.3017 66.3776 11.4686 66.4628C12.3364 66.5118 13.136 66.4192 13.7279 66.4752C14.4186 67.1636 15.1486 67.8081 15.8883 68.4403C17.0076 70.0588 17.6105 72.5829 18.1732 73.3665C19.1447 74.653 20.4471 74.6823 21.5748 74.3917C22.4196 74.1402 23.1726 73.752 23.7523 73.6082C24.6276 74.0378 25.5149 74.4381 26.4218 74.8044C27.1871 75.3293 27.8718 76.1055 28.4822 76.8671C29.1717 77.6799 29.7894 78.3928 30.1946 78.6834C30.8487 79.1592 31.4968 79.3083 32.0913 79.2596C32.6968 79.1642 33.2508 78.8716 33.7441 78.5298C34.4533 78.0414 35.0305 77.4456 35.5261 77.1333C36.4918 77.2528 37.4658 77.3189 38.4506 77.3701C40.3304 77.9975 42.3491 79.5451 43.2767 79.8357C44.8414 80.3897 45.8742 79.4379 46.5843 78.5346C47.0972 77.856 47.4584 77.1308 47.8222 76.6669C48.806 76.462 49.7628 76.1982 50.7149 75.9201C52.6727 75.8808 55.0823 76.7329 56.0366 76.7011C57.6453 76.5889 58.3826 75.5072 58.7537 74.4063C59.0075 73.559 59.0882 72.7147 59.2832 72.1481C60.0937 71.6648 60.8944 71.1643 61.661 70.6224C62.5374 70.2365 63.5896 70.0684 64.5928 69.9754C65.6473 69.8339 66.5847 69.7168 67.0511 69.536C68.6013 68.9792 68.9161 67.6929 68.8624 66.4796C68.8429 65.6155 68.6623 64.7977 68.6818 64.2117C69.2897 63.4938 69.8585 62.7423 70.4102 61.978C70.7495 61.6924 71.1133 61.4238 71.5331 61.1942C71.9871 60.9015 72.478 60.645 72.9588 60.4107C73.9157 59.937 74.814 59.5467 75.1997 59.2341C77.3018 57.3152 75.4585 54.9938 74.985 53.6364C75.3389 52.7283 75.6807 51.8154 75.9688 50.8782C76.9209 49.184 79.113 47.6631 79.4989 46.8112C80.9567 44.3412 78.3763 42.7471 77.4949 41.6145ZM40.1745 73.3251C21.828 73.3251 6.89908 58.3977 6.89908 40.0497C6.89908 21.7044 21.828 6.77533 40.1745 6.77533C58.5198 6.77533 73.4476 21.7044 73.4476 40.0497C73.4476 58.3975 58.5225 73.3251 40.1745 73.3251Z" fill="#F6F3E3"/>
            <path d="M40.4015 8.57788C23.0704 8.57788 8.97394 22.6733 8.97394 40.0019C8.97394 57.328 23.0704 71.4234 40.4015 71.4234C57.7266 71.4234 71.8243 57.3255 71.8243 40.0019C71.8243 22.6707 57.7241 8.57788 40.4015 8.57788ZM40.4015 69.4144C24.1823 69.4144 10.9865 56.2223 10.9865 40.0021C10.9865 23.7842 24.1823 10.5848 40.4015 10.5848C56.6182 10.5848 69.8102 23.7817 69.8102 40.0021C69.8104 56.2175 56.6182 69.4144 40.4015 69.4144Z" fill="#F6F3E3"/>
            <path d="M37.3894 58.1432H46.8849L48.3312 24.7794H35.9441L37.3894 58.1432Z" fill="#F6F3E3"/>
            <path d="M44.442 17H39.5599V23.9642H44.442V17Z" fill="#F6F3E3"/>
            <path d="M23.8417 57.987H31.5923L32.7724 30.7462H22.6616L23.8417 57.987Z" fill="#F6F3E3"/>
            <path d="M29.5985 24.396H25.6141V30.0805H29.5985V24.396Z" fill="#F6F3E3"/>
            <path d="M52.0596 58.2558H59.8079L60.9879 31.0137H50.8772L52.0596 58.2558Z" fill="#F6F3E3"/>
            <path d="M57.8173 24.6693H53.8295V30.3538H57.8173V24.6693Z" fill="#F6F3E3"/>
        </g>
        <defs>
            <clipPath id="clip0_14_55">
                <rect width="80" height="80" fill="white"/>
            </clipPath>
        </defs>
    </symbol>
    <symbol id="arrow" width="65" height="8" fill="currentColor" viewBox="0 0 65 8" xmlns="http://www.w3.org/2000/svg">
        <path
                d="M64.3536 3.64645C64.5488 3.84171 64.5488 4.15829 64.3536 4.35355L61.1716 7.53553C60.9763 7.7308 60.6597 7.7308 60.4645 7.53553C60.2692 7.34027 60.2692 7.02369 60.4645 6.82843L63.2929 4L60.4645 1.17157C60.2692 0.976311 60.2692 0.659728 60.4645 0.464466C60.6597 0.269204 60.9763 0.269204 61.1716 0.464466L64.3536 3.64645ZM0 3.5L64 3.5V4.5L0 4.5L0 3.5Z" fill="currentColor"/>
    </symbol>

</svg>